<svg t="1680505276595" class="icon" viewBox="0 0 1024 1024" version="1.1" xmlns="http://www.w3.org/2000/svg" p-id="5704"
     width="200" height="200">
    <path d="M307.2 64m76.8 0l256 0q76.8 0 76.8 76.8l0 128q0 76.8-76.8 76.8l-256 0q-76.8 0-76.8-76.8l0-128q0-76.8 76.8-76.8Z"
          fill="#1989FA" opacity=".3" p-id="5705"></path>
    <path d="M307.2 371.2m76.8 0l256 0q76.8 0 76.8 76.8l0 128q0 76.8-76.8 76.8l-256 0q-76.8 0-76.8-76.8l0-128q0-76.8 76.8-76.8Z"
          fill="#1989FA" opacity=".3" p-id="5706"></path>
    <path d="M307.2 678.4m76.8 0l256 0q76.8 0 76.8 76.8l0 128q0 76.8-76.8 76.8l-256 0q-76.8 0-76.8-76.8l0-128q0-76.8 76.8-76.8Z"
          fill="#1989FA" opacity=".3" p-id="5707"></path>
    <path d="M823.5648 870.4H793.6a25.6 25.6 0 1 1 0-51.2h29.9648a76.8 76.8 0 1 1 0 51.2zM200.448 819.2H230.4a25.6 25.6 0 1 1 0 51.2h-29.9648a76.8 76.8 0 1 1 0-51.2zM823.552 550.4H793.6a25.6 25.6 0 1 1 0-51.2h29.9648a76.8 76.8 0 1 1 0 51.2zM200.448 499.2H230.4a25.6 25.6 0 1 1 0 51.2h-29.9648a76.8 76.8 0 1 1 0-51.2zM823.552 217.6H793.6a25.6 25.6 0 1 1 0-51.2h29.9648a76.8 76.8 0 1 1 0 51.2zM200.448 166.4H230.4a25.6 25.6 0 1 1 0 51.2h-29.9648a76.8 76.8 0 1 1 0-51.2z"
          fill="#1989FA" p-id="5708"></path>
    <path d="M409.6 192m19.2 0l166.4 0q19.2 0 19.2 19.2l0 0q0 19.2-19.2 19.2l-166.4 0q-19.2 0-19.2-19.2l0 0q0-19.2 19.2-19.2Z"
          fill="#1989FA" p-id="5709"></path>
    <path d="M409.6 499.2m19.2 0l166.4 0q19.2 0 19.2 19.2l0 0q0 19.2-19.2 19.2l-166.4 0q-19.2 0-19.2-19.2l0 0q0-19.2 19.2-19.2Z"
          fill="#1989FA" p-id="5710"></path>
    <path d="M409.6 806.4m19.2 0l166.4 0q19.2 0 19.2 19.2l0 0q0 19.2-19.2 19.2l-166.4 0q-19.2 0-19.2-19.2l0 0q0-19.2 19.2-19.2Z"
          fill="#1989FA" p-id="5711"></path>
</svg>