<svg t="1680505369523" class="icon" viewBox="0 0 1024 1024" version="1.1" xmlns="http://www.w3.org/2000/svg" p-id="9445"
     width="200" height="200">
    <path d="M527.48387094 140.38709656c205.93548375 0 371.61290344 173.41935469 371.61290344 387.09677438H512V140.38709656h15.48387094z"
          fill="#D3EAFF" p-id="9446"></path>
    <path d="M880.51612906 315.35483844c30.96774187-24.77419313 52.64516156-61.93548375 52.64516156-105.29032219 0-72.77419312-58.83870938-131.61290344-131.61290343-131.61290344-44.90322562 0-85.16129063 23.22580687-108.38709657 57.29032313C638.96774187 109.41935469 577.03225813 93.93548375 512 93.93548375s-126.96774187 15.48387094-181.16129062 41.80645219c-23.22580687-34.06451625-63.48387094-57.29032219-108.38709657-57.29032313-72.77419312 0-131.61290344 58.83870938-131.61290344 131.61290344 0 43.35483844 20.1290325 80.51612906 52.64516157 105.29032219C112.51612906 374.19354875 93.93548375 440.77419312 93.93548375 512c0 117.67741969 49.54838719 224.51612906 128.51612906 300.38709656l-3.09677437 3.09677438L140.38709656 909.93548375c-10.83870938 12.38709656-9.29032219 32.51612906 3.09677438 43.35483844 12.38709656 10.83870938 32.51612906 9.29032219 43.35483844-3.09677344l78.96774187-94.45161281c1.54838719-1.54838719 1.54838719-3.09677437 3.09677438-4.64516156 68.1290325 49.54838719 153.29032219 77.41935469 243.09677437 77.41935468s174.96774188-29.41935469 243.09677438-77.41935468c1.54838719 1.54838719 1.54838719 3.09677437 3.09677437 4.64516156l78.96774188 94.45161281c10.83870938 12.38709656 30.96774187 15.48387094 43.35483843 3.09677344 12.38709656-10.83870938 15.48387094-30.96774187 3.09677438-43.35483844l-77.41935469-92.90322562c-1.54838719-1.54838719-1.54838719-3.09677437-3.09677437-3.09677438 77.41935469-77.41935469 126.96774187-184.25806406 126.96774187-301.93548375 0-71.22580688-18.58064531-137.80645125-49.54838719-196.64516156zM801.54838719 124.90322563c46.45161281 0 85.16129063 38.70967781 85.16129062 85.16129062 0 26.32258031-12.38709656 49.54838719-30.96774187 65.03225813-32.51612906-46.45161281-74.32258031-86.70967781-122.32258125-117.67741969C750.45161281 137.29032219 773.67741969 124.90322563 801.54838719 124.90322563zM137.29032219 210.06451625c0-46.45161281 38.70967781-85.16129063 85.16129062-85.16129063 27.8709675 0 51.09677437 12.38709656 66.58064532 32.51612907-48 30.96774187-89.80645125 69.67741969-122.32258032 117.67741969-17.03225813-15.48387094-29.41935469-38.70967781-29.41935562-65.03225813zM512 868.1290325C315.35483844 868.1290325 155.8709675 708.64516156 155.8709675 512c0-61.93548375 15.48387094-120.77419312 44.90322562-171.8709675 9.29032219-15.48387094 18.58064531-30.96774187 29.41935563-44.90322562 21.67741969-27.8709675 48-52.64516156 77.41935469-74.32258126 13.93548375-10.83870938 29.41935469-20.1290325 46.45161281-27.8709675C400.51612906 169.80645125 454.70967781 155.8709675 512 155.8709675s111.48387094 13.93548375 159.48387094 37.16129063c15.48387094 7.74193594 30.96774187 17.03225813 46.45161281 27.8709675 29.41935469 20.1290325 55.74193594 44.90322562 77.41935469 74.32258125 10.83870938 13.93548375 20.1290325 29.41935469 29.41935468 44.90322562C852.64516156 391.22580688 868.1290325 450.06451625 868.1290325 512c0 196.64516156-159.48387094 356.1290325-356.1290325 356.1290325z"
          fill="#1890FF" p-id="9447"></path>
    <path d="M512 326.19354875c17.03225813 0 30.96774187 13.93548375 30.96774187 30.96774188v139.35483843h108.38709657c17.03225813 0 30.96774187 13.93548375 30.96774187 30.96774188s-13.93548375 30.96774187-30.96774187 30.96774187h-139.35483844c-17.03225813 0-30.96774187-13.93548375-30.96774187-30.96774187V357.16129062c0-17.03225813 13.93548375-30.96774187 30.96774187-30.96774187z"
          fill="#FFC13D" p-id="9448"></path>
</svg>